<svg width="24" height="24" viewBox="0 0 24 24" fill="none" xmlns="http://www.w3.org/2000/svg">
<path fill-rule="evenodd" clip-rule="evenodd" d="M16.3027 2.75H7.65069C4.63869 2.75 2.74969 4.884 2.74969 7.904V16.05C2.74969 19.07 4.63069 21.204 7.65069 21.204H16.2977C19.3227 21.204 21.2027 19.07 21.2027 16.05V7.904C21.2067 4.884 19.3257 2.75 16.3027 2.75Z" stroke="#7A808C" stroke-width="1.5" stroke-linecap="round" stroke-linejoin="round"/>
<path fill-rule="evenodd" clip-rule="evenodd" d="M10.7031 8.78496C10.7031 9.80496 9.87711 10.631 8.85711 10.631C7.83811 10.631 7.01111 9.80496 7.01111 8.78496C7.01111 7.76496 7.83811 6.93896 8.85711 6.93896C9.87611 6.93996 10.7021 7.76596 10.7031 8.78496Z" stroke="#7A808C" stroke-width="1.5" stroke-linecap="round" stroke-linejoin="round"/>
<path d="M21.207 14.951C20.284 14.001 18.509 12.082 16.579 12.082C14.648 12.082 13.535 16.315 11.678 16.315C9.821 16.315 8.134 14.401 6.646 15.628C5.158 16.854 3.75 19.361 3.75 19.361" stroke="#7A808C" stroke-width="1.5" stroke-linecap="round" stroke-linejoin="round"/>
</svg>
