<svg width="231" height="231" viewBox="0 0 231 231" fill="none" xmlns="http://www.w3.org/2000/svg">
<rect width="231" height="231" rx="115.5" fill="white"/>
<path d="M105.395 51.0699C108.058 48.3802 112.374 48.386 115.029 51.0829L134.916 71.2813C135.579 71.9546 135.577 73.0439 134.911 73.7144L68.5682 140.528C67.8997 141.201 66.8173 141.196 66.1552 140.517L42.8846 116.632C42.2283 115.958 42.2326 114.875 42.8942 114.207L105.395 51.0699Z" fill="#1B1D29"/>
<path d="M137.411 157.252C138.064 156.584 138.06 155.516 137.403 154.852L111.741 128.924C111.074 128.251 109.987 128.247 109.316 128.917L83.3184 154.869C82.6519 155.535 82.6483 156.613 83.3103 157.283L109.283 183.56C109.956 184.24 111.056 184.237 111.724 183.552L137.411 157.252Z" fill="#1B1D29"/>
<path d="M177.533 116.862C178.198 116.196 178.2 115.117 177.537 114.448L115.133 51.5607C112.453 48.86 108.085 48.8631 105.409 51.5676L84.9213 72.2734L151.994 140.013C152.661 140.687 153.75 140.689 154.421 140.018L177.533 116.862Z" fill="#1B1D29"/>
<path d="M136.083 72.6003L114.996 51.1908C112.321 48.4749 107.942 48.4678 105.258 51.1749L84.6235 71.9891L110.505 98.1024L136.083 72.6003Z" fill="#1B1D29"/>
</svg>
