<svg width="40" height="40" viewBox="0 0 40 40" fill="none" xmlns="http://www.w3.org/2000/svg">
<rect width="40" height="40" rx="20" fill="white"/>
<path d="M19.2502 8.84326C19.7113 8.37751 20.4586 8.37851 20.9184 8.84551L24.362 12.3431C24.4768 12.4597 24.4764 12.6483 24.3611 12.7644L12.8732 24.3338C12.7574 24.4504 12.57 24.4495 12.4554 24.3319L8.42582 20.1959C8.31218 20.0793 8.31292 19.8918 8.42748 19.776L19.2502 8.84326Z" fill="#1B1D29"/>
<path d="M24.794 27.2299C24.907 27.1142 24.9064 26.9293 24.7927 26.8144L20.349 22.3248C20.2335 22.2081 20.0452 22.2075 19.929 22.3235L15.4273 26.8174C15.3119 26.9326 15.3113 27.1194 15.426 27.2354L19.9234 31.7854C20.0399 31.9032 20.2303 31.9027 20.3461 31.7841L24.794 27.2299Z" fill="#1B1D29"/>
<path d="M31.7416 20.2359C31.8568 20.1204 31.8571 19.9336 31.7422 19.8178L20.9364 8.92823C20.4723 8.46058 19.7159 8.46113 19.2526 8.92944L15.7049 12.5149L27.3192 24.2446C27.4348 24.3614 27.6234 24.3618 27.7395 24.2455L31.7416 20.2359Z" fill="#1B1D29"/>
<path d="M24.5638 12.5717L20.9124 8.86445C20.4492 8.39416 19.6911 8.39293 19.2263 8.8617L15.6532 12.4659L20.1349 16.9877L24.5638 12.5717Z" fill="#1B1D29"/>
</svg>
